<?xml version="1.0" encoding="UTF-8"?>
<svg id="Layer_1" data-name="Layer 1" xmlns="http://www.w3.org/2000/svg" viewBox="0 0 438.03 150.7">
  <defs>
    <style>
      .cls-1 {
        fill: #707275;
      }

      .cls-2 {
        fill: #6f7174;
      }
    </style>
  </defs>
  <path class="cls-1" d="m.1,147.58c-.24-.87-.09-1.37.74-1.79,20.39-10.27,41.43-18.8,63.75-23.93,5.11-1.17,10.25-2.19,15.43-2.96,4.47-.66,8.96-1.2,13.47-1.56,4.83-.39,9.67-.55,14.51-.76,3.63-.15,7.26-.28,10.87-.12,4.21.19,8.43.12,12.64.46,3.66.29,7.32.58,10.97.94,3.77.37,7.53.77,11.28,1.28,5.87.8,11.75,1.63,17.57,2.77,5.54,1.09,11.09,2.19,16.63,3.31,18.49,3.71,36.69,8.6,54.97,13.16,8.33,2.08,16.63,4.27,25,6.18,4.15.95,8.34,1.62,12.53,2.33,2.8.48,5.63.85,8.45,1.11,2.32.21,4.67.41,7,.59,6.52.5,13.04.5,19.56.5,2.64,0,5.28.06,7.91-.06,3.41-.15,6.8-.5,10.21-.69,4.34-.24,8.66-.75,12.98-1.22,5.38-.58,10.74-1.31,16.09-2.13,14.22-2.17,28.28-5.08,42.03-9.36,11.2-3.48,22.03-7.85,32.37-13.42.27-.15.52-.38.87-.34.34,1.11-.13,1.68-1.14,2.21-14.32,7.64-29.55,12.87-45.25,16.77-11.54,2.87-23.2,5.15-34.98,6.78-5.61.77-11.23,1.46-16.88,1.93-5.11.42-10.22.73-15.34.96-6.99.32-13.96.04-20.94-.02-4.11-.04-8.19-.45-12.27-.79-5.02-.42-10.03-1.14-15.01-1.97-16.96-2.83-33.52-7.32-50.08-11.81-13.87-3.77-27.78-7.39-41.88-10.21-4.54-.91-9.08-1.8-13.63-2.65-6.09-1.14-12.19-2.13-18.32-2.93-4.14-.54-8.28-1.08-12.45-1.36-3.67-.25-7.35-.48-11.02-.74-6.34-.45-12.67-.52-19-.35-3.81.1-7.62.31-11.41.66-7.04.65-14.03,1.58-21.01,2.79-26.54,4.64-51.47,13.91-75.49,25.85-.52.26-1,.7-1.71.56Z"/>
  <path class="cls-1" d="m310.58,113.71c.06-.65-.39-.92-.69-1.27-2.2-2.57-5.1-3.72-8.37-4.19-2.13-.3-4.28-.41-6.37-.95-1.96-.51-3.8-1.22-5.33-2.59-.4-.36-.96-.71-.37-1.37.52-.58,1.09-.65,1.68-.14,2.5,2.17,5.58,2.54,8.69,2.86,3.28.34,6.48.95,9.36,2.68,1.4.84,2.54,1.94,3.24,3.44.85,1.83.32,2.94-1.65,3.32-.74.14-1.52.26-2.26.19-6.1-.55-12.04.42-17.87,2.04-1.53.42-2.69.11-3.9-.61-2.57-1.54-4.54-3.77-6.6-5.89-3.9-4.01-8.04-7.78-11.66-12.06-3.29-3.89-6.27-7.98-8.66-12.48-.51-.95-1.06-1.88-1.63-2.79-1.25-2-3.02-3.33-5.23-4.17-10.17-3.9-20.31-7.89-30.32-12.2-2.33-1-4.5-2.29-6.21-4.2-3.04-3.38-3.44-6.92-1.15-11.12,2.56-4.7,6.61-7.94,11.02-10.78.49-.32,1.07-.4,1.36.16.3.58.29,1.21-.43,1.64-2.43,1.47-4.76,3.07-6.89,4.98-2.31,2.08-3.63,4.74-4,7.69-.37,2.9,1.07,5.32,3.23,7.25,1.72,1.54,3.77,2.52,5.87,3.42,8.59,3.68,17.29,7.06,25.99,10.45,1.26.49,2.59.81,3.89,1.19,1.49.43,2.61,1.33,3.49,2.58.95,1.34,1.7,2.79,2.44,4.26,3.09,6.12,7.31,11.44,12,16.38,3.63,3.83,7.39,7.53,11.12,11.26,1.13,1.13,2.37,2.15,3.78,2.92.59.32,1.14.39,1.82.19,5.54-1.61,11.18-2.55,16.97-2.2,1.19.07,2.36.33,3.63.13Z"/>
  <path class="cls-2" d="m283.41,40.95c4.98,3.6,9.65,7.44,14.69,10.77,1.4.93,2.75,1.93,3.96,3.1.72.7.73,1.31.11,2.07-2.22,2.74-5.2,4.16-8.53,4.99-3.06.76-6.2.92-9.32,1.26-3.44.37-6.88.74-10.33,1.04-2.81.24-5.59.68-8.43.7-1.24.01-2.51.33-3.78.43-.67.05-1.26-.08-1.25-.89,0-.79.5-1.02,1.27-1.08,3.58-.25,7.16-.64,10.75-.83,1.79-.1,3.58-.22,5.35-.37,3.86-.34,7.7-.97,11.54-1.53,2.17-.32,4.33-.68,6.41-1.4.98-.34,1.94-.76,2.73-1.47,1.03-.93,1.04-1.89,0-2.86-.29-.27-.61-.51-.93-.75-5.24-3.94-10.49-7.87-15.74-11.8-1.44-1.08-1.46-1.3-.25-2.58,1.72-1.83,3.37-3.73,5.19-5.48,1.92-1.85,4.2-1.94,6.59-1.73,3.02.27,6.03.77,9.05.82,5.27.08,7.48-3.62,7.36-7.53-.04-1.46.08-2.94.29-4.38.75-5.16-2.8-9.6-7.91-10.42-5.67-.91-11.09.25-16.54,1.36-1.95.4-3.87.89-5.8,1.36-.7.17-1.31.13-1.53-.68-.23-.85.31-1.11,1.02-1.27,4.19-.99,8.31-2.26,12.57-2.96,2.06-.34,4.15-.6,6.23-.6,3.95,0,7.71.74,10.58,3.8,1.97,2.09,3.13,4.53,3.52,7.43.71,5.32-.17,10.12-3.83,14.23-1.67,1.88-3.69,2.41-6.15,1.92-3.8-.76-7.65-1.17-11.54-1.01-.33.01-.61.05-.87.29-2.12,2-4.26,3.98-6.5,6.07Z"/>
  <path class="cls-2" d="m162.36,88.16c.27,1.64.21,1.7-1.28,1.86-3.27.35-5.94,1.99-8.45,3.96-3.24,2.54-6.43,5.14-10.31,6.7-1.41.57-2.86.99-4.33,1.31-1.41.3-2.78-.08-3.93-.98-1.84-1.44-2.03-3.11-.61-4.98.59-.77,1.3-1.4,2.05-2.01,5.31-4.33,9.49-9.6,12.57-15.69,1.56-3.08,3.45-3.38,6.9-3.11,4.93.39,9.8.68,14.62-.84,3.16-.99,6.34-1.92,9.59-2.6,5.18-1.07,10.42-1.37,15.69-1.18,1.49.05,2.8-.26,4.08-1.07,3.04-1.92,6.15-3.72,9.23-5.58.6-.36,1.3-.82,1.76,0,.38.68.06,1.31-.71,1.76-3.31,1.93-6.54,4.01-9.89,5.87-2.38,1.32-5,1.55-7.72,1.25-1.94-.21-3.93-.24-5.86-.03-5.44.57-10.74,1.89-15.96,3.53-1.82.57-3.59,1.33-5.51,1.56-1.51.19-3,.2-4.5-.01-2.78-.38-5.58-.12-8.36-.07-.67.01-.83.69-1.1,1.14-2.12,3.54-4.4,6.95-7.05,10.12-2.42,2.89-5.07,5.54-7.9,8.02-.35.31-.88.58-.79,1.12.1.58.71.6,1.16.66,3.41.49,6.63-.03,9.55-1.94,3.08-2.01,5.97-4.29,8.94-6.45,2.43-1.77,5.12-2.65,8.14-2.33Z"/>
  <path class="cls-1" d="m251,11.71c2.68.67,5.3,1.33,7.93,1.99,3.1.78,6.18,1.62,9.22,2.6,3.76,1.21,5.66,3.49,5.89,7.41.22,3.72-.45,7.37-1.1,11.02-.1.56-.43.89-1,.77-.68-.14-1.02-.61-.92-1.32.26-1.73.57-3.46.79-5.2.27-2.22.28-4.47.01-6.68-.24-2.01-1.58-3.2-3.51-3.82-3.69-1.19-7.47-2.04-11.2-3.07-1.96-.54-3.93-1.08-5.92-1.49-7.81-1.62-15.4-4.09-23.16-5.93-2.08-.49-3.77-.2-5.36,1.1-3.35,2.75-5.8,6.15-7.33,10.19-.28.75-.54,1.42-1.48,1.09-.92-.33-.77-.99-.46-1.76,1.63-4.02,3.93-7.59,7.04-10.61,1.37-1.33,2.83-2.63,4.98-2.5.53.03.93-.28,1.18-.83.6-1.31,1.28-2.57,1.88-3.88C228.73.23,229.06,0,229.73,0c2.22,0,4.35.55,6.53.84,2.91.39,5.82.86,8.72,1.34,2.32.38,4.65.64,6.95,1.15,1.15.25,1.13.77.91,1.59-.6,2.23-1.21,4.46-1.84,6.8Zm-.32-6.48c-.49-.32-.97-.35-1.44-.41-1.86-.22-3.73-.44-5.56-.78-4.22-.79-8.5-1.2-12.71-2.02-.34-.07-.73-.19-.95.24-.54,1.09-1.07,2.18-1.64,3.35,6.99,1.93,13.71,4.09,20.68,5.57.58-2.13,1.1-4.05,1.62-5.95Z"/>
  <path class="cls-2" d="m241.62,34.66c-3.34-.34-6.31-.65-9.28-.93-3.16-.3-6.33-.54-9.49-.84-1.38-.13-2.76-.29-4.13-.5-.8-.12-1.2-.57-.93-1.44,1.39-4.49,2.78-8.99,4.15-13.49.23-.77.71-1.02,1.45-.87,3.3.67,6.6,1.38,9.9,2.04,3.54.7,7.08,1.36,10.62,2.05,1.12.22,2.24.42,3.34.69,1,.25.9.97.59,1.71-.88,2.1-1.77,4.19-2.66,6.28-.53,1.25-1.12,2.47-1.58,3.75-.42,1.16-.96,1.96-1.98,1.56Zm4.04-11.55c-7.39-1.48-14.66-2.93-22-4.4-1.22,3.97-2.41,7.84-3.61,11.74.9.54,1.8.22,2.64.33,2.66.34,5.32.75,7.99.89,3.29.17,6.54.66,9.8.98.6.06,1.13,0,1.4-.63,1.25-2.93,2.48-5.86,3.77-8.91Z"/>
</svg>